<svg id="visual" viewBox="0 0 1920 1080" width="1920" height="1080" xmlns="http://www.w3.org/2000/svg" xmlns:xlink="http://www.w3.org/1999/xlink" version="1.1"><rect x="0" y="0" width="1920" height="1080" fill="#161616"></rect><defs><linearGradient id="grad1_0" x1="43.8%" y1="100%" x2="100%" y2="0%"><stop offset="14.444444444444446%" stop-color="#161616" stop-opacity="1"></stop><stop offset="85.55555555555554%" stop-color="#161616" stop-opacity="1"></stop></linearGradient></defs><defs><linearGradient id="grad2_0" x1="0%" y1="100%" x2="56.3%" y2="0%"><stop offset="14.444444444444446%" stop-color="#161616" stop-opacity="1"></stop><stop offset="85.55555555555554%" stop-color="#161616" stop-opacity="1"></stop></linearGradient></defs><g transform="translate(1920, 1080)"><path d="M-432 0C-428.8 -59.2 -425.7 -118.4 -399.1 -165.3C-372.6 -212.3 -322.7 -246.9 -278.6 -278.6C-234.5 -310.3 -196.2 -338.9 -150.8 -364C-105.3 -389.1 -52.7 -410.5 0 -432L0 0Z" fill="#6325f3"></path></g><g transform="translate(0, 0)"><path d="M432 0C429.3 59.2 426.6 118.5 399.1 165.3C371.6 212.2 319.2 246.6 272.9 272.9C226.7 299.3 186.5 317.6 142 342.8C97.5 367.9 48.7 400 0 432L0 0Z" fill="#6325f3"></path></g></svg>