<svg id="visual" viewBox="0 0 1920 1080" width="1920" height="1080" xmlns="http://www.w3.org/2000/svg" xmlns:xlink="http://www.w3.org/1999/xlink" version="1.1"><rect x="0" y="0" width="1920" height="1080" fill="#161616"></rect><defs><linearGradient id="grad1_0" x1="43.8%" y1="100%" x2="100%" y2="0%"><stop offset="14.444444444444446%" stop-color="#161616" stop-opacity="1"></stop><stop offset="85.55555555555554%" stop-color="#161616" stop-opacity="1"></stop></linearGradient></defs><defs><linearGradient id="grad2_0" x1="0%" y1="100%" x2="56.3%" y2="0%"><stop offset="14.444444444444446%" stop-color="#161616" stop-opacity="1"></stop><stop offset="85.55555555555554%" stop-color="#161616" stop-opacity="1"></stop></linearGradient></defs><g transform="translate(1920, 1080)"><path d="M-648 0C-615.8 -78.1 -583.6 -156.2 -548.8 -227.3C-514 -298.5 -476.7 -362.7 -428.5 -428.5C-380.3 -494.3 -321.2 -561.8 -248 -598.7C-174.7 -635.5 -87.4 -641.8 0 -648L0 0Z" fill="#6325f3"></path></g><g transform="translate(0, 0)"><path d="M648 0C551.5 49.4 454.9 98.9 435.1 180.2C415.4 261.6 472.3 374.9 452.5 452.5C432.8 530.2 336.2 572.1 248 598.7C159.8 625.3 79.9 636.6 0 648L0 0Z" fill="#6325f3"></path></g></svg>