<svg id="visual" viewBox="0 0 960 540" width="960" height="540" xmlns="http://www.w3.org/2000/svg" xmlns:xlink="http://www.w3.org/1999/xlink" version="1.1"><rect x="0" y="0" width="960" height="540" fill="#101010"></rect><defs><linearGradient id="grad1_0" x1="43.8%" y1="100%" x2="100%" y2="0%"><stop offset="14.444444444444446%" stop-color="#101010" stop-opacity="1"></stop><stop offset="85.55555555555554%" stop-color="#101010" stop-opacity="1"></stop></linearGradient></defs><defs><linearGradient id="grad2_0" x1="0%" y1="100%" x2="56.3%" y2="0%"><stop offset="14.444444444444446%" stop-color="#101010" stop-opacity="1"></stop><stop offset="85.55555555555554%" stop-color="#101010" stop-opacity="1"></stop></linearGradient></defs><g transform="translate(960, 540)"><path d="M-216 0C-207.2 -26.5 -198.5 -53.1 -187.5 -77.7C-176.6 -102.3 -163.6 -124.9 -146.4 -146.4C-129.1 -167.8 -107.8 -188.1 -82.7 -199.6C-57.6 -211 -28.8 -213.5 0 -216L0 0Z" fill="#6325f3"></path></g><g transform="translate(0, 0)"><path d="M216 0C209.2 27.7 202.4 55.3 190.3 78.8C178.2 102.3 160.8 121.7 142.8 142.8C124.9 164 106.5 187.1 82.7 199.6C58.8 212.1 29.4 214 0 216L0 0Z" fill="#6325f3"></path></g></svg>